<mxfile host="app.diagrams.net" agent="Mozilla/5.0 (Windows NT 10.0; Win64; x64; rv:130.0) Gecko/20100101 Firefox/130.0" version="24.7.14">
  <diagram name="Page-1" id="SlWZa16sxK-ySOUGScNQ">
    <mxGraphModel dx="1195" dy="652" grid="0" gridSize="10" guides="1" tooltips="1" connect="1" arrows="1" fold="1" page="1" pageScale="1" pageWidth="850" pageHeight="1100" math="0" shadow="0">
      <root>
        <mxCell id="0" />
        <mxCell id="1" parent="0" />
        <mxCell id="GwPMtnyFVHfHTUv6f3DR-21" style="edgeStyle=orthogonalEdgeStyle;rounded=0;orthogonalLoop=1;jettySize=auto;html=1;exitX=1;exitY=0.5;exitDx=0;exitDy=0;strokeColor=#23445D;" edge="1" parent="1" source="GwPMtnyFVHfHTUv6f3DR-5" target="GwPMtnyFVHfHTUv6f3DR-18">
          <mxGeometry relative="1" as="geometry" />
        </mxCell>
        <mxCell id="GwPMtnyFVHfHTUv6f3DR-5" value="User provides app with boulder problem" style="rounded=0;whiteSpace=wrap;html=1;labelBackgroundColor=none;fillColor=#182E3E;strokeColor=#FFFFFF;fontColor=#FFFFFF;" vertex="1" parent="1">
          <mxGeometry x="350" y="117.5" width="151" height="79" as="geometry" />
        </mxCell>
        <mxCell id="GwPMtnyFVHfHTUv6f3DR-13" value="Design level 1: The user provides the app with a boulder problem and gets an optimal path up the course " style="rounded=0;whiteSpace=wrap;html=1;strokeColor=#FFFFFF;fontColor=#FFFFFF;fillColor=#182E3E;" vertex="1" parent="1">
          <mxGeometry x="143" y="34" width="567" height="60" as="geometry" />
        </mxCell>
        <mxCell id="GwPMtnyFVHfHTUv6f3DR-20" style="edgeStyle=orthogonalEdgeStyle;rounded=0;orthogonalLoop=1;jettySize=auto;html=1;exitX=1;exitY=0.5;exitDx=0;exitDy=0;strokeColor=#23445D;" edge="1" parent="1" source="GwPMtnyFVHfHTUv6f3DR-14" target="GwPMtnyFVHfHTUv6f3DR-5">
          <mxGeometry relative="1" as="geometry" />
        </mxCell>
        <mxCell id="GwPMtnyFVHfHTUv6f3DR-14" value="User" style="ellipse;whiteSpace=wrap;html=1;strokeColor=#FFFFFF;fontColor=#FFFFFF;fillColor=#182E3E;" vertex="1" parent="1">
          <mxGeometry x="157" y="109" width="135" height="96" as="geometry" />
        </mxCell>
        <mxCell id="GwPMtnyFVHfHTUv6f3DR-18" value="Best path provided to the user" style="rounded=1;whiteSpace=wrap;html=1;strokeColor=#FFFFFF;fontColor=#FFFFFF;fillColor=#182E3E;" vertex="1" parent="1">
          <mxGeometry x="559" y="116" width="151" height="82" as="geometry" />
        </mxCell>
        <mxCell id="GwPMtnyFVHfHTUv6f3DR-23" value="Design level 2: the user has to acquire the app then provide the app with some personal information to assist in finding the best path up. The user then provides app with a boulder problem and the best path is provided" style="rounded=0;whiteSpace=wrap;html=1;strokeColor=#FFFFFF;fontColor=#FFFFFF;fillColor=#182E3E;" vertex="1" parent="1">
          <mxGeometry x="137" y="263" width="567" height="60" as="geometry" />
        </mxCell>
        <mxCell id="GwPMtnyFVHfHTUv6f3DR-33" style="edgeStyle=orthogonalEdgeStyle;rounded=0;orthogonalLoop=1;jettySize=auto;html=1;exitX=1;exitY=0.5;exitDx=0;exitDy=0;entryX=0;entryY=0.5;entryDx=0;entryDy=0;strokeColor=#23445D;" edge="1" parent="1" source="GwPMtnyFVHfHTUv6f3DR-24" target="GwPMtnyFVHfHTUv6f3DR-27">
          <mxGeometry relative="1" as="geometry" />
        </mxCell>
        <mxCell id="GwPMtnyFVHfHTUv6f3DR-24" value="User" style="ellipse;whiteSpace=wrap;html=1;strokeColor=#FFFFFF;fontColor=#FFFFFF;fillColor=#182E3E;" vertex="1" parent="1">
          <mxGeometry x="35" y="346" width="120" height="80" as="geometry" />
        </mxCell>
        <mxCell id="GwPMtnyFVHfHTUv6f3DR-34" style="edgeStyle=orthogonalEdgeStyle;rounded=0;orthogonalLoop=1;jettySize=auto;html=1;exitX=1;exitY=0.5;exitDx=0;exitDy=0;entryX=0;entryY=0.5;entryDx=0;entryDy=0;strokeColor=#23445D;" edge="1" parent="1" source="GwPMtnyFVHfHTUv6f3DR-27" target="GwPMtnyFVHfHTUv6f3DR-28">
          <mxGeometry relative="1" as="geometry" />
        </mxCell>
        <mxCell id="GwPMtnyFVHfHTUv6f3DR-27" value="User acquires app" style="rounded=0;whiteSpace=wrap;html=1;strokeColor=#FFFFFF;fontColor=#FFFFFF;fillColor=#182E3E;" vertex="1" parent="1">
          <mxGeometry x="190" y="356" width="120" height="60" as="geometry" />
        </mxCell>
        <mxCell id="GwPMtnyFVHfHTUv6f3DR-35" style="edgeStyle=orthogonalEdgeStyle;rounded=0;orthogonalLoop=1;jettySize=auto;html=1;exitX=1;exitY=0.5;exitDx=0;exitDy=0;entryX=0;entryY=0.5;entryDx=0;entryDy=0;strokeColor=#23445D;" edge="1" parent="1" source="GwPMtnyFVHfHTUv6f3DR-28" target="GwPMtnyFVHfHTUv6f3DR-29">
          <mxGeometry relative="1" as="geometry" />
        </mxCell>
        <mxCell id="GwPMtnyFVHfHTUv6f3DR-28" value="User provides personal info to app" style="rounded=0;whiteSpace=wrap;html=1;strokeColor=#FFFFFF;fontColor=#FFFFFF;fillColor=#182E3E;" vertex="1" parent="1">
          <mxGeometry x="339" y="356" width="120" height="60" as="geometry" />
        </mxCell>
        <mxCell id="GwPMtnyFVHfHTUv6f3DR-36" style="edgeStyle=orthogonalEdgeStyle;rounded=0;orthogonalLoop=1;jettySize=auto;html=1;exitX=1;exitY=0.5;exitDx=0;exitDy=0;entryX=0;entryY=0.5;entryDx=0;entryDy=0;strokeColor=#23445D;" edge="1" parent="1" source="GwPMtnyFVHfHTUv6f3DR-29" target="GwPMtnyFVHfHTUv6f3DR-30">
          <mxGeometry relative="1" as="geometry" />
        </mxCell>
        <mxCell id="GwPMtnyFVHfHTUv6f3DR-29" value="user provides app with boulder problem" style="rounded=0;whiteSpace=wrap;html=1;strokeColor=#FFFFFF;fontColor=#FFFFFF;fillColor=#182E3E;" vertex="1" parent="1">
          <mxGeometry x="488" y="356" width="120" height="60" as="geometry" />
        </mxCell>
        <mxCell id="GwPMtnyFVHfHTUv6f3DR-30" value="Best path provided to the user" style="rounded=1;whiteSpace=wrap;html=1;strokeColor=#FFFFFF;fontColor=#FFFFFF;fillColor=#182E3E;" vertex="1" parent="1">
          <mxGeometry x="638" y="356" width="120" height="60" as="geometry" />
        </mxCell>
        <mxCell id="GwPMtnyFVHfHTUv6f3DR-37" value="Design level 3: The user must acquire the app on its proper app store (android or ios). The user must then create an account where they can provide info on their height, age, skill level, and limb length. After that the user can provide a picture of the boulder problem either within the app or upload a photo themselves. Once the photo is verified as a proper format, readable quality, and identified as an actual boulder problem the photo is accepted. The app will then use the boulder problem data and user data to provide an optimal path based on their physical features, skill level, and boulder problem provided" style="rounded=0;whiteSpace=wrap;html=1;strokeColor=#FFFFFF;fontColor=#FFFFFF;fillColor=#182E3E;" vertex="1" parent="1">
          <mxGeometry x="60" y="448" width="685" height="102" as="geometry" />
        </mxCell>
        <mxCell id="GwPMtnyFVHfHTUv6f3DR-53" style="edgeStyle=orthogonalEdgeStyle;rounded=0;orthogonalLoop=1;jettySize=auto;html=1;exitX=1;exitY=0.5;exitDx=0;exitDy=0;entryX=0;entryY=0.5;entryDx=0;entryDy=0;strokeColor=#23445D;" edge="1" parent="1" source="GwPMtnyFVHfHTUv6f3DR-38" target="GwPMtnyFVHfHTUv6f3DR-39">
          <mxGeometry relative="1" as="geometry" />
        </mxCell>
        <mxCell id="GwPMtnyFVHfHTUv6f3DR-38" value="User " style="ellipse;whiteSpace=wrap;html=1;strokeColor=#FFFFFF;fontColor=#FFFFFF;fillColor=#182E3E;" vertex="1" parent="1">
          <mxGeometry x="10" y="570" width="104" height="73" as="geometry" />
        </mxCell>
        <mxCell id="GwPMtnyFVHfHTUv6f3DR-55" style="edgeStyle=orthogonalEdgeStyle;rounded=0;orthogonalLoop=1;jettySize=auto;html=1;exitX=1;exitY=0.5;exitDx=0;exitDy=0;entryX=0;entryY=0.5;entryDx=0;entryDy=0;strokeColor=#23445D;" edge="1" parent="1" source="GwPMtnyFVHfHTUv6f3DR-39" target="GwPMtnyFVHfHTUv6f3DR-40">
          <mxGeometry relative="1" as="geometry" />
        </mxCell>
        <mxCell id="GwPMtnyFVHfHTUv6f3DR-39" value="User acquires app" style="rounded=0;whiteSpace=wrap;html=1;strokeColor=#FFFFFF;fontColor=#FFFFFF;fillColor=#182E3E;" vertex="1" parent="1">
          <mxGeometry x="143" y="577" width="120" height="60" as="geometry" />
        </mxCell>
        <mxCell id="GwPMtnyFVHfHTUv6f3DR-56" style="edgeStyle=orthogonalEdgeStyle;rounded=0;orthogonalLoop=1;jettySize=auto;html=1;exitX=1;exitY=0.5;exitDx=0;exitDy=0;strokeColor=#23445D;" edge="1" parent="1" source="GwPMtnyFVHfHTUv6f3DR-40">
          <mxGeometry relative="1" as="geometry">
            <mxPoint x="450.8333333333335" y="611.3333333333335" as="targetPoint" />
          </mxGeometry>
        </mxCell>
        <mxCell id="GwPMtnyFVHfHTUv6f3DR-40" value="User is prompted to provide info on their name, age, height, arm length, and leg length " style="rounded=0;whiteSpace=wrap;html=1;strokeColor=#FFFFFF;fontColor=#FFFFFF;fillColor=#182E3E;" vertex="1" parent="1">
          <mxGeometry x="295" y="577" width="129" height="68" as="geometry" />
        </mxCell>
        <mxCell id="GwPMtnyFVHfHTUv6f3DR-57" style="edgeStyle=orthogonalEdgeStyle;rounded=0;orthogonalLoop=1;jettySize=auto;html=1;exitX=0.5;exitY=1;exitDx=0;exitDy=0;entryX=0.5;entryY=0;entryDx=0;entryDy=0;strokeColor=#23445D;" edge="1" parent="1" source="GwPMtnyFVHfHTUv6f3DR-41" target="GwPMtnyFVHfHTUv6f3DR-42">
          <mxGeometry relative="1" as="geometry" />
        </mxCell>
        <mxCell id="GwPMtnyFVHfHTUv6f3DR-41" value="User is prompted to either provide a photo or take one within the app" style="rounded=0;whiteSpace=wrap;html=1;strokeColor=#FFFFFF;fontColor=#FFFFFF;fillColor=#182E3E;" vertex="1" parent="1">
          <mxGeometry x="451" y="577" width="120" height="60" as="geometry" />
        </mxCell>
        <mxCell id="GwPMtnyFVHfHTUv6f3DR-45" style="edgeStyle=orthogonalEdgeStyle;rounded=0;orthogonalLoop=1;jettySize=auto;html=1;entryX=0;entryY=0.5;entryDx=0;entryDy=0;strokeColor=#23445D;" edge="1" parent="1" source="GwPMtnyFVHfHTUv6f3DR-42" target="GwPMtnyFVHfHTUv6f3DR-44">
          <mxGeometry relative="1" as="geometry" />
        </mxCell>
        <mxCell id="GwPMtnyFVHfHTUv6f3DR-51" value="&lt;font color=&quot;#000000&quot;&gt;No&lt;/font&gt;" style="edgeLabel;html=1;align=center;verticalAlign=middle;resizable=0;points=[];strokeColor=#FFFFFF;fontColor=#FFFFFF;fillColor=#182E3E;" vertex="1" connectable="0" parent="GwPMtnyFVHfHTUv6f3DR-45">
          <mxGeometry x="-0.0279" y="1" relative="1" as="geometry">
            <mxPoint as="offset" />
          </mxGeometry>
        </mxCell>
        <mxCell id="GwPMtnyFVHfHTUv6f3DR-58" style="edgeStyle=orthogonalEdgeStyle;rounded=0;orthogonalLoop=1;jettySize=auto;html=1;exitX=0.5;exitY=1;exitDx=0;exitDy=0;strokeColor=#23445D;" edge="1" parent="1" source="GwPMtnyFVHfHTUv6f3DR-42">
          <mxGeometry relative="1" as="geometry">
            <mxPoint x="506.66666666666674" y="813" as="targetPoint" />
          </mxGeometry>
        </mxCell>
        <mxCell id="GwPMtnyFVHfHTUv6f3DR-59" value="&lt;font color=&quot;#000000&quot;&gt;Yes&lt;/font&gt;" style="edgeLabel;html=1;align=center;verticalAlign=middle;resizable=0;points=[];strokeColor=#FFFFFF;fontColor=#FFFFFF;fillColor=#182E3E;" vertex="1" connectable="0" parent="GwPMtnyFVHfHTUv6f3DR-58">
          <mxGeometry x="-0.1674" relative="1" as="geometry">
            <mxPoint as="offset" />
          </mxGeometry>
        </mxCell>
        <mxCell id="GwPMtnyFVHfHTUv6f3DR-42" value="Is photo a valid format?" style="rhombus;whiteSpace=wrap;html=1;strokeColor=#FFFFFF;fontColor=#FFFFFF;fillColor=#182E3E;" vertex="1" parent="1">
          <mxGeometry x="448" y="663" width="116.5" height="108" as="geometry" />
        </mxCell>
        <mxCell id="GwPMtnyFVHfHTUv6f3DR-46" style="edgeStyle=orthogonalEdgeStyle;rounded=0;orthogonalLoop=1;jettySize=auto;html=1;exitX=1;exitY=0.5;exitDx=0;exitDy=0;entryX=0;entryY=0.5;entryDx=0;entryDy=0;strokeColor=#001DBC;fillColor=#0050ef;" edge="1" parent="1" source="GwPMtnyFVHfHTUv6f3DR-43" target="GwPMtnyFVHfHTUv6f3DR-44">
          <mxGeometry relative="1" as="geometry" />
        </mxCell>
        <mxCell id="GwPMtnyFVHfHTUv6f3DR-47" value="NO" style="edgeLabel;html=1;align=center;verticalAlign=middle;resizable=0;points=[];strokeColor=#FFFFFF;fontColor=#FFFFFF;fillColor=#182E3E;" vertex="1" connectable="0" parent="GwPMtnyFVHfHTUv6f3DR-46">
          <mxGeometry x="0.082" y="1" relative="1" as="geometry">
            <mxPoint as="offset" />
          </mxGeometry>
        </mxCell>
        <mxCell id="GwPMtnyFVHfHTUv6f3DR-48" value="" style="edgeLabel;html=1;align=center;verticalAlign=middle;resizable=0;points=[];strokeColor=#FFFFFF;fontColor=#FFFFFF;fillColor=#182E3E;" vertex="1" connectable="0" parent="GwPMtnyFVHfHTUv6f3DR-46">
          <mxGeometry x="0.0455" relative="1" as="geometry">
            <mxPoint as="offset" />
          </mxGeometry>
        </mxCell>
        <mxCell id="GwPMtnyFVHfHTUv6f3DR-49" value="NO" style="edgeLabel;html=1;align=center;verticalAlign=middle;resizable=0;points=[];strokeColor=#FFFFFF;fontColor=#FFFFFF;fillColor=#182E3E;" vertex="1" connectable="0" parent="GwPMtnyFVHfHTUv6f3DR-46">
          <mxGeometry x="0.082" y="-1" relative="1" as="geometry">
            <mxPoint x="-2" y="-1" as="offset" />
          </mxGeometry>
        </mxCell>
        <mxCell id="GwPMtnyFVHfHTUv6f3DR-50" value="&lt;font color=&quot;#000000&quot;&gt;No&lt;/font&gt;" style="edgeLabel;html=1;align=center;verticalAlign=middle;resizable=0;points=[];strokeColor=#FFFFFF;fontColor=#FFFFFF;fillColor=#182E3E;" vertex="1" connectable="0" parent="GwPMtnyFVHfHTUv6f3DR-46">
          <mxGeometry x="0.1548" y="-2" relative="1" as="geometry">
            <mxPoint as="offset" />
          </mxGeometry>
        </mxCell>
        <mxCell id="GwPMtnyFVHfHTUv6f3DR-63" style="edgeStyle=orthogonalEdgeStyle;rounded=0;orthogonalLoop=1;jettySize=auto;html=1;exitX=0;exitY=0.5;exitDx=0;exitDy=0;strokeColor=#23445D;" edge="1" parent="1" source="GwPMtnyFVHfHTUv6f3DR-43">
          <mxGeometry relative="1" as="geometry">
            <mxPoint x="407.5" y="872.1666666666667" as="targetPoint" />
          </mxGeometry>
        </mxCell>
        <mxCell id="GwPMtnyFVHfHTUv6f3DR-64" value="&lt;font color=&quot;#000000&quot;&gt;Yes&lt;/font&gt;" style="edgeLabel;html=1;align=center;verticalAlign=middle;resizable=0;points=[];strokeColor=#FFFFFF;fontColor=#FFFFFF;fillColor=#182E3E;" vertex="1" connectable="0" parent="GwPMtnyFVHfHTUv6f3DR-63">
          <mxGeometry x="-0.1493" y="1" relative="1" as="geometry">
            <mxPoint as="offset" />
          </mxGeometry>
        </mxCell>
        <mxCell id="GwPMtnyFVHfHTUv6f3DR-43" value="Is photo a valid boulder problem" style="rhombus;whiteSpace=wrap;html=1;strokeColor=#FFFFFF;fontColor=#FFFFFF;fillColor=#182E3E;" vertex="1" parent="1">
          <mxGeometry x="444" y="820" width="127" height="105" as="geometry" />
        </mxCell>
        <mxCell id="GwPMtnyFVHfHTUv6f3DR-52" style="edgeStyle=orthogonalEdgeStyle;rounded=0;orthogonalLoop=1;jettySize=auto;html=1;exitX=0.5;exitY=0;exitDx=0;exitDy=0;entryX=1;entryY=0.5;entryDx=0;entryDy=0;strokeColor=#23445D;" edge="1" parent="1" source="GwPMtnyFVHfHTUv6f3DR-44" target="GwPMtnyFVHfHTUv6f3DR-41">
          <mxGeometry relative="1" as="geometry" />
        </mxCell>
        <mxCell id="GwPMtnyFVHfHTUv6f3DR-44" value="User is asked to provide a valid photo of a boulder problem" style="rounded=0;whiteSpace=wrap;html=1;strokeColor=#FFFFFF;fontColor=#FFFFFF;fillColor=#182E3E;" vertex="1" parent="1">
          <mxGeometry x="598" y="743" width="120" height="60" as="geometry" />
        </mxCell>
        <mxCell id="GwPMtnyFVHfHTUv6f3DR-65" style="edgeStyle=orthogonalEdgeStyle;rounded=0;orthogonalLoop=1;jettySize=auto;html=1;exitX=0.5;exitY=0;exitDx=0;exitDy=0;strokeColor=#23445D;" edge="1" parent="1" source="GwPMtnyFVHfHTUv6f3DR-60">
          <mxGeometry relative="1" as="geometry">
            <mxPoint x="340" y="808" as="targetPoint" />
          </mxGeometry>
        </mxCell>
        <mxCell id="GwPMtnyFVHfHTUv6f3DR-60" value="Photo is read for boulder points and other hazards" style="rounded=0;whiteSpace=wrap;html=1;strokeColor=#FFFFFF;fontColor=#FFFFFF;fillColor=#182E3E;" vertex="1" parent="1">
          <mxGeometry x="280" y="845" width="120" height="60" as="geometry" />
        </mxCell>
        <mxCell id="GwPMtnyFVHfHTUv6f3DR-66" style="edgeStyle=orthogonalEdgeStyle;rounded=0;orthogonalLoop=1;jettySize=auto;html=1;exitX=0;exitY=0.5;exitDx=0;exitDy=0;strokeColor=#23445D;" edge="1" parent="1" source="GwPMtnyFVHfHTUv6f3DR-61">
          <mxGeometry relative="1" as="geometry">
            <mxPoint x="237.5" y="776.3333333333335" as="targetPoint" />
          </mxGeometry>
        </mxCell>
        <mxCell id="GwPMtnyFVHfHTUv6f3DR-61" value="User info and boulder related info are calculated" style="rounded=0;whiteSpace=wrap;html=1;strokeColor=#FFFFFF;fontColor=#FFFFFF;fillColor=#182E3E;" vertex="1" parent="1">
          <mxGeometry x="280" y="746" width="120" height="60" as="geometry" />
        </mxCell>
        <mxCell id="GwPMtnyFVHfHTUv6f3DR-62" value="Best path is provided to the user" style="rounded=1;whiteSpace=wrap;html=1;strokeColor=#FFFFFF;fontColor=#FFFFFF;fillColor=#182E3E;" vertex="1" parent="1">
          <mxGeometry x="114" y="743" width="120" height="60" as="geometry" />
        </mxCell>
      </root>
    </mxGraphModel>
  </diagram>
</mxfile>
